<?xml version="1.0" encoding="UTF-8" standalone="no"?>
<!-- Created with Inkscape (http://www.inkscape.org/) -->

<svg
   width="38.503075mm"
   height="19.572596mm"
   viewBox="0 0 38.503075 19.572596"
   version="1.1"
   id="svg1"
   xml:space="preserve"
   xmlns="http://www.w3.org/2000/svg"
   xmlns:svg="http://www.w3.org/2000/svg"><defs
     id="defs1" /><g
     id="layer1"
     transform="translate(-409.46131,-160.74555)"><path
       style="font-weight:500;font-size:11.8323px;line-height:0.8;font-family:Fredoka;-inkscape-font-specification:'Fredoka Medium';text-align:center;text-anchor:middle;white-space:pre;inline-size:59.5145;stroke-width:3.7267;stroke-linecap:round;stroke-linejoin:round;paint-order:fill markers stroke"
       d="m 301.8847,252.94643 c -0.20509,0 -0.35891,-0.0316 -0.46146,-0.0947 -0.10255,-0.0631 -0.1696,-0.1499 -0.20115,-0.26031 -0.0237,-0.11044 -0.0355,-0.23271 -0.0355,-0.3668 v -6.82724 c 0,-0.12621 0.0118,-0.24059 0.0355,-0.34314 0.0315,-0.11043 0.0986,-0.1972 0.20115,-0.26031 0.10255,-0.071 0.26425,-0.10649 0.48512,-0.10649 0.16565,0 0.28792,0.0118 0.36681,0.0355 0.0868,0.0158 0.15381,0.0434 0.20114,0.0828 0.0473,0.0315 0.0947,0.0749 0.14199,0.13016 l 2.88708,4.03481 h -0.27214 l 2.89891,-4.04664 c 0.0552,-0.0631 0.11042,-0.11046 0.16566,-0.14199 0.0552,-0.0315 0.12619,-0.0552 0.21298,-0.071 0.0868,-0.0158 0.20114,-0.0237 0.34313,-0.0237 0.21299,0 0.37075,0.0355 0.4733,0.10649 0.10255,0.0631 0.16565,0.1499 0.18931,0.26031 0.0315,0.11043 0.0473,0.2327 0.0473,0.3668 v 6.82724 c 0,0.11832 -0.0158,0.2327 -0.0473,0.34314 -0.0237,0.11043 -0.0868,0.1972 -0.18931,0.26031 -0.10255,0.0631 -0.26426,0.0947 -0.48513,0.0947 -0.21298,0 -0.37074,-0.0355 -0.47329,-0.10649 -0.10255,-0.0631 -0.1696,-0.14991 -0.20115,-0.26032 -0.0237,-0.11043 -0.0355,-0.22875 -0.0355,-0.35496 v -5.07606 l -2.15347,3.11189 c -0.0237,0.0315 -0.0592,0.0749 -0.1065,0.13016 -0.0473,0.0473 -0.11044,0.0907 -0.18931,0.13015 -0.0789,0.0395 -0.18537,0.0592 -0.31947,0.0592 -0.12621,0 -0.22876,-0.0197 -0.30764,-0.0592 -0.0789,-0.0395 -0.14199,-0.0828 -0.18932,-0.13015 -0.0395,-0.0473 -0.0789,-0.0947 -0.11832,-0.14199 l -2.14165,-3.10006 v 5.09972 c 0,0.11832 -0.0158,0.2327 -0.0473,0.34314 -0.0237,0.11043 -0.0868,0.1972 -0.18932,0.26031 -0.10255,0.0631 -0.26425,0.0947 -0.48512,0.0947 z m 13.68996,-0.0118 c -0.22875,0 -0.39835,-0.0434 -0.50878,-0.13015 -0.11044,-0.0868 -0.16566,-0.2051 -0.16566,-0.35497 l 0.0828,-0.39047 c -0.0631,0.10255 -0.16962,0.22481 -0.31947,0.3668 -0.14988,0.1341 -0.34709,0.25637 -0.59162,0.36681 -0.24453,0.10255 -0.54034,0.15382 -0.88742,0.15382 -0.37075,0 -0.72177,-0.0749 -1.05307,-0.22482 -0.32342,-0.15776 -0.61134,-0.37074 -0.86376,-0.63894 -0.24453,-0.27609 -0.44174,-0.58767 -0.59162,-0.93475 -0.14199,-0.35497 -0.21298,-0.73361 -0.21298,-1.1359 0,-0.38653 0.071,-0.74939 0.21298,-1.08858 0.14988,-0.34708 0.35103,-0.65472 0.60345,-0.92292 0.25242,-0.26819 0.54034,-0.47723 0.86376,-0.62711 0.3313,-0.15776 0.67838,-0.23664 1.04124,-0.23664 0.32341,0 0.59556,0.0434 0.81643,0.13015 0.22876,0.0868 0.42202,0.19721 0.57978,0.33131 0.15777,0.12621 0.28792,0.2603 0.39047,0.40229 l -0.071,-0.34313 c 0,-0.17354 0.0552,-0.3037 0.16566,-0.39047 0.11043,-0.0947 0.28397,-0.14199 0.52062,-0.14199 0.22087,0 0.37863,0.0355 0.47329,0.1065 0.0947,0.0631 0.15382,0.15385 0.17748,0.27214 0.0237,0.11043 0.0355,0.23664 0.0355,0.37863 v 4.33062 c 0,0.1341 -0.0118,0.25637 -0.0355,0.3668 -0.0237,0.11044 -0.0868,0.19721 -0.18931,0.26032 -0.0947,0.0631 -0.25243,0.0946 -0.4733,0.0946 z m -2.17714,-1.37254 c 0.2682,0 0.50879,-0.0671 0.72177,-0.20115 0.21298,-0.1341 0.38258,-0.31553 0.50879,-0.54429 0.1341,-0.23665 0.20115,-0.49696 0.20115,-0.78093 0,-0.30764 -0.067,-0.57584 -0.20115,-0.8046 -0.1341,-0.22875 -0.31158,-0.40624 -0.53245,-0.53245 -0.21298,-0.1341 -0.45357,-0.20115 -0.72177,-0.20115 -0.29187,0 -0.55218,0.071 -0.78093,0.21298 -0.22876,0.1341 -0.41019,0.31947 -0.54429,0.55612 -0.12621,0.22876 -0.18932,0.48907 -0.18932,0.78093 0,0.28398 0.067,0.54035 0.20115,0.7691 0.1341,0.22876 0.31553,0.41019 0.54429,0.54429 0.23665,0.1341 0.5009,0.20115 0.79276,0.20115 z m 4.75659,1.39621 c -0.21298,0 -0.37074,-0.0355 -0.47329,-0.10649 -0.0947,-0.0631 -0.15382,-0.1499 -0.17749,-0.26031 -0.0237,-0.11044 -0.0355,-0.23271 -0.0355,-0.3668 v -4.38979 c 0,-0.14199 0.0118,-0.26425 0.0355,-0.3668 0.0237,-0.11043 0.0828,-0.19326 0.17749,-0.24848 0.10255,-0.0631 0.26425,-0.0947 0.48512,-0.0947 0.21298,0 0.3668,0.0276 0.46146,0.0828 0.10255,0.0552 0.16565,0.12619 0.18932,0.21298 0.0315,0.0789 0.0473,0.15776 0.0473,0.23665 l -0.0947,0.21298 c 0.0395,-0.0631 0.0947,-0.13807 0.16565,-0.22481 0.071,-0.0947 0.16565,-0.18538 0.28398,-0.27215 0.11832,-0.0947 0.26031,-0.16959 0.42596,-0.22481 0.16565,-0.0631 0.36286,-0.0947 0.59161,-0.0947 0.0947,0 0.19326,0.0118 0.29581,0.0355 0.11043,0.0158 0.21692,0.0434 0.31947,0.0828 0.11044,0.0315 0.20904,0.0749 0.29581,0.13016 0.0868,0.0552 0.15382,0.12225 0.20115,0.20115 0.0473,0.071 0.071,0.15382 0.071,0.24848 0,0.25242 -0.0631,0.4654 -0.18931,0.63894 -0.12621,0.17354 -0.27609,0.26031 -0.44963,0.26031 -0.11833,0 -0.2051,-0.0118 -0.26031,-0.0355 -0.0552,-0.0237 -0.10253,-0.0513 -0.14199,-0.0828 -0.0315,-0.0315 -0.0828,-0.0591 -0.15382,-0.0828 -0.0631,-0.0237 -0.16568,-0.0355 -0.30764,-0.0355 -0.11832,0 -0.24059,0.0197 -0.3668,0.0592 -0.11832,0.0395 -0.22875,0.0986 -0.3313,0.17748 -0.10255,0.0789 -0.18537,0.18143 -0.24848,0.30764 -0.0631,0.11833 -0.0947,0.25637 -0.0947,0.41413 v 2.87525 c 0,0.1341 -0.0118,0.25637 -0.0355,0.3668 -0.0237,0.10255 -0.0868,0.18537 -0.18931,0.24848 -0.10255,0.0631 -0.2682,0.0947 -0.49696,0.0947 z m 6.85091,0.0237 c -0.16565,0 -0.3037,-0.0276 -0.41413,-0.0828 -0.11043,-0.0552 -0.1972,-0.14592 -0.26031,-0.27215 l -2.15348,-4.5081 c -0.11832,-0.23665 -0.14989,-0.42596 -0.0947,-0.56795 0.0552,-0.14199 0.19719,-0.2682 0.42597,-0.37864 0.23665,-0.11832 0.42596,-0.15776 0.56795,-0.11832 0.14199,0.0395 0.2682,0.1854 0.37863,0.4378 l 1.55003,3.63251 1.52637,-3.56152 c 0.11043,-0.26031 0.23664,-0.42202 0.37863,-0.48512 0.14199,-0.071 0.34708,-0.0394 0.61528,0.0947 0.2682,0.1341 0.41019,0.28398 0.42596,0.44963 0.0158,0.15777 -0.0276,0.3392 -0.13015,0.54429 l -2.14165,4.46077 c -0.0631,0.11833 -0.1499,0.2051 -0.26031,0.26031 -0.11043,0.0631 -0.24848,0.0947 -0.41413,0.0947 z m 4.63827,-0.0237 c -0.21298,0 -0.37074,-0.0355 -0.47329,-0.10649 -0.10255,-0.0631 -0.16565,-0.14596 -0.18932,-0.24848 -0.0237,-0.11043 -0.0355,-0.2327 -0.0355,-0.3668 v -4.40162 c 0,-0.12621 0.0118,-0.24058 0.0355,-0.34313 0.0315,-0.11044 0.0946,-0.19721 0.18932,-0.26031 0.10255,-0.0631 0.26425,-0.0947 0.48512,-0.0947 0.22087,0 0.37864,0.0316 0.47329,0.0947 0.10255,0.0631 0.16565,0.1499 0.18932,0.26031 0.0237,0.11043 0.0355,0.2327 0.0355,0.3668 v 4.38978 c 0,0.1341 -0.0118,0.25637 -0.0355,0.3668 -0.0237,0.10255 -0.0868,0.18537 -0.18932,0.24848 -0.0947,0.0631 -0.25636,0.0947 -0.48512,0.0947 z m 0,-6.96923 c -0.22876,0 -0.39836,-0.0316 -0.50879,-0.0947 -0.10255,-0.071 -0.1696,-0.16566 -0.20115,-0.28398 -0.0237,-0.11832 -0.0355,-0.24848 -0.0355,-0.39047 0,-0.14987 0.0118,-0.28003 0.0355,-0.39046 0.0315,-0.11043 0.10253,-0.1972 0.21298,-0.26031 0.11044,-0.071 0.28004,-0.10649 0.50879,-0.10649 0.23665,0 0.40624,0.0355 0.50879,0.10649 0.10255,0.071 0.1696,0.16565 0.20115,0.28397 0.0315,0.11043 0.0473,0.24059 0.0473,0.39047 0,0.1341 -0.0158,0.26031 -0.0473,0.37863 -0.0315,0.11833 -0.0986,0.20904 -0.20115,0.27215 -0.10255,0.0631 -0.27609,0.0947 -0.52062,0.0947 z m 2.69776,6.9574 c -0.21298,0 -0.37074,-0.0355 -0.47329,-0.10649 -0.0947,-0.0631 -0.15382,-0.14596 -0.17748,-0.24848 -0.0237,-0.11044 -0.0355,-0.23271 -0.0355,-0.3668 v -4.42528 c 0,-0.12621 0.0118,-0.24059 0.0355,-0.34314 0.0237,-0.10255 0.0868,-0.18143 0.18931,-0.23665 0.10255,-0.0631 0.26031,-0.0947 0.47329,-0.0947 0.18932,0 0.33131,0.0237 0.42597,0.071 0.0947,0.0473 0.15776,0.10649 0.18931,0.17748 0.0315,0.071 0.0473,0.14199 0.0473,0.21298 0.008,0.071 0.0158,0.12621 0.0237,0.16566 l -0.0473,0.37863 c 0.0473,-0.12621 0.12621,-0.24848 0.23664,-0.3668 0.11044,-0.11833 0.24454,-0.22482 0.4023,-0.31947 0.15777,-0.10255 0.32736,-0.18143 0.50879,-0.23665 0.18932,-0.0631 0.38258,-0.0947 0.57978,-0.0947 0.37075,0 0.70205,0.0671 0.99392,0.20115 0.29186,0.1341 0.54034,0.32342 0.74543,0.56795 0.21298,0.24453 0.37469,0.5364 0.48513,0.87559 0.11043,0.33131 0.16565,0.706 0.16565,1.12407 v 2.35463 c 0,0.1341 -0.0158,0.25637 -0.0473,0.3668 -0.0237,0.10255 -0.0828,0.18537 -0.17748,0.24848 -0.0947,0.0631 -0.25637,0.0947 -0.48513,0.0947 -0.22087,0 -0.38257,-0.0355 -0.48512,-0.10649 -0.10255,-0.0631 -0.16565,-0.14596 -0.18932,-0.24848 -0.0237,-0.11044 -0.0355,-0.23271 -0.0355,-0.3668 v -2.35463 c 0,-0.28397 -0.0513,-0.52851 -0.15382,-0.7336 -0.0947,-0.20509 -0.23664,-0.36286 -0.42596,-0.4733 -0.18143,-0.11043 -0.41413,-0.16565 -0.69811,-0.16565 -0.27609,0 -0.51668,0.0592 -0.72177,0.17749 -0.20509,0.11043 -0.36286,0.2682 -0.47329,0.47329 -0.11043,0.20509 -0.16565,0.44568 -0.16565,0.72177 v 2.36646 c 0,0.1341 -0.0118,0.25637 -0.0355,0.3668 -0.0237,0.10255 -0.0868,0.18537 -0.18931,0.24848 -0.0947,0.0631 -0.25637,0.0947 -0.48513,0.0947 z m -22.54912,8.70956 c 0.0789,0.14988 0.11833,0.28398 0.11833,0.4023 0.008,0.11043 -0.0237,0.20904 -0.0947,0.29581 -0.071,0.0789 -0.18931,0.16171 -0.35497,0.24848 -0.25242,0.11832 -0.44962,0.14989 -0.59162,0.0947 -0.13409,-0.0552 -0.2603,-0.20902 -0.37863,-0.46146 l -2.6386,-5.57302 -2.62677,5.57302 c -0.11832,0.24453 -0.24848,0.39046 -0.39047,0.43779 -0.14198,0.0552 -0.33919,0.0276 -0.59161,-0.0828 -0.15776,-0.0789 -0.27609,-0.16171 -0.35497,-0.24848 -0.071,-0.0868 -0.10256,-0.18932 -0.0947,-0.30764 0.0158,-0.12621 0.0671,-0.27609 0.15382,-0.44963 l 3.25388,-6.77991 c 0.0631,-0.12621 0.15385,-0.22482 0.27214,-0.29581 0.12622,-0.0789 0.25637,-0.11832 0.39047,-0.11832 0.0947,0 0.18143,0.0158 0.26031,0.0473 0.0789,0.0315 0.14988,0.0789 0.21298,0.14199 0.071,0.0631 0.13016,0.14201 0.17749,0.23664 z m -6.0463,-1.14773 0.56795,-1.21873 h 3.08823 l 0.56795,1.21873 z m 8.33851,2.14165 c -0.15776,0 -0.28397,-0.0316 -0.37863,-0.0947 -0.0868,-0.0552 -0.15382,-0.12619 -0.20115,-0.21298 -0.0395,-0.0868 -0.075,-0.16566 -0.10649,-0.23665 l -1.73935,-4.40161 c -0.0473,-0.14988 -0.071,-0.27609 -0.071,-0.37864 0.008,-0.10255 0.0473,-0.18932 0.11832,-0.26031 0.0789,-0.0789 0.19326,-0.14593 0.34314,-0.20115 0.25242,-0.10255 0.44962,-0.13015 0.59161,-0.0828 0.14987,0.0473 0.26031,0.18143 0.33131,0.40229 l 1.12406,2.98174 1.01758,-2.85158 c 0.0237,-0.071 0.0592,-0.14593 0.10649,-0.22481 0.0473,-0.0789 0.11438,-0.14594 0.20115,-0.20115 0.0947,-0.0631 0.22087,-0.0947 0.37863,-0.0947 0.16565,0 0.29581,0.0316 0.39047,0.0947 0.0947,0.0552 0.16565,0.12225 0.21298,0.20115 0.0552,0.0789 0.0907,0.15382 0.10649,0.22481 l 1.01758,2.87525 1.07674,-2.89892 c 0.0947,-0.24453 0.21298,-0.40624 0.35497,-0.48512 0.14199,-0.0789 0.33525,-0.071 0.57978,0.0237 0.22087,0.0947 0.37075,0.21298 0.44963,0.35497 0.0789,0.1341 0.071,0.31159 -0.0237,0.53246 l -1.75118,4.38978 c -0.0315,0.0789 -0.071,0.16171 -0.11832,0.24848 -0.0395,0.0789 -0.10652,0.14593 -0.20115,0.20115 -0.0868,0.0631 -0.20509,0.0947 -0.35497,0.0947 -0.15776,0 -0.28397,-0.0276 -0.37863,-0.0828 -0.0868,-0.0473 -0.15382,-0.11438 -0.20115,-0.20115 -0.0473,-0.0868 -0.0868,-0.17748 -0.11832,-0.27214 l -1.02941,-2.92258 -1.02941,2.92258 c -0.0473,0.11043 -0.0907,0.20904 -0.13016,0.29581 -0.0395,0.0868 -0.10257,0.14987 -0.18932,0.18931 -0.0868,0.0473 -0.21298,0.071 -0.37863,0.071 z m 11.29983,-0.0118 c -0.22876,0 -0.39836,-0.0434 -0.50879,-0.13015 -0.11043,-0.0868 -0.16565,-0.2051 -0.16565,-0.35497 l 0.0828,-0.39047 c -0.0631,0.10255 -0.16963,0.22482 -0.31948,0.36681 -0.14987,0.13409 -0.34708,0.25636 -0.59161,0.3668 -0.24453,0.10255 -0.54034,0.15382 -0.88742,0.15382 -0.37075,0 -0.72177,-0.0749 -1.05308,-0.22482 -0.32341,-0.15776 -0.61133,-0.37074 -0.86376,-0.63894 -0.24453,-0.27609 -0.44174,-0.58767 -0.59161,-0.93475 -0.14199,-0.35497 -0.21298,-0.73361 -0.21298,-1.1359 0,-0.38653 0.071,-0.74939 0.21298,-1.08858 0.14987,-0.34708 0.35102,-0.65472 0.60345,-0.92291 0.25242,-0.2682 0.54034,-0.47724 0.86375,-0.62712 0.33131,-0.15776 0.67839,-0.23664 1.04125,-0.23664 0.32341,0 0.59555,0.0434 0.81642,0.13015 0.22876,0.0868 0.42202,0.19721 0.57979,0.33131 0.15776,0.12621 0.28791,0.26031 0.39046,0.4023 l -0.071,-0.34314 c 0,-0.17354 0.0552,-0.3037 0.16565,-0.39047 0.11043,-0.0947 0.28397,-0.14199 0.52062,-0.14199 0.22087,0 0.37864,0.0355 0.47329,0.1065 0.0947,0.0631 0.15382,0.15385 0.17749,0.27214 0.0237,0.11043 0.0355,0.23664 0.0355,0.37863 v 4.33062 c 0,0.1341 -0.0118,0.25637 -0.0355,0.36681 -0.0237,0.11043 -0.0868,0.1972 -0.18932,0.26031 -0.0947,0.0631 -0.25242,0.0947 -0.47329,0.0947 z m -2.17714,-1.37254 c 0.2682,0 0.50879,-0.067 0.72177,-0.20115 0.21298,-0.1341 0.38258,-0.31553 0.50879,-0.54429 0.1341,-0.23665 0.20115,-0.49696 0.20115,-0.78093 0,-0.30764 -0.067,-0.57584 -0.20115,-0.8046 -0.1341,-0.22875 -0.31159,-0.40624 -0.53246,-0.53245 -0.21298,-0.1341 -0.45357,-0.20115 -0.72177,-0.20115 -0.29186,0 -0.55217,0.071 -0.78093,0.21298 -0.22876,0.1341 -0.41019,0.31947 -0.54429,0.55612 -0.12621,0.22876 -0.18931,0.48907 -0.18931,0.78093 0,0.28398 0.067,0.54035 0.20115,0.7691 0.1341,0.22876 0.31553,0.41019 0.54428,0.54429 0.23665,0.1341 0.5009,0.20115 0.79277,0.20115 z m 4.75658,1.39621 c -0.21298,0 -0.37074,-0.0355 -0.47329,-0.10649 -0.0947,-0.0631 -0.15382,-0.1499 -0.17748,-0.26031 -0.0237,-0.11043 -0.0355,-0.2327 -0.0355,-0.3668 v -4.38979 c 0,-0.14199 0.0118,-0.26425 0.0355,-0.3668 0.0237,-0.11043 0.0828,-0.19326 0.17748,-0.24848 0.10255,-0.0631 0.26426,-0.0947 0.48513,-0.0947 0.21298,0 0.3668,0.0276 0.46146,0.0828 0.10255,0.0552 0.16565,0.12619 0.18931,0.21298 0.0315,0.0789 0.0473,0.15777 0.0473,0.23665 l -0.0947,0.21298 c 0.0395,-0.0631 0.0947,-0.13807 0.16566,-0.22481 0.071,-0.0947 0.16565,-0.18538 0.28397,-0.27215 0.11832,-0.0947 0.26031,-0.16959 0.42596,-0.22481 0.16565,-0.0631 0.36286,-0.0947 0.59162,-0.0947 0.0947,0 0.19326,0.0118 0.29581,0.0355 0.11043,0.0158 0.21692,0.0434 0.31947,0.0828 0.11043,0.0315 0.20904,0.0749 0.29581,0.13016 0.0868,0.0552 0.15381,0.12225 0.20114,0.20115 0.0473,0.071 0.071,0.15382 0.071,0.24848 0,0.25242 -0.0631,0.4654 -0.18932,0.63894 -0.12621,0.17354 -0.27609,0.26031 -0.44963,0.26031 -0.11832,0 -0.20509,-0.0118 -0.26031,-0.0355 -0.0552,-0.0237 -0.10253,-0.0513 -0.14198,-0.0828 -0.0315,-0.0315 -0.0828,-0.0591 -0.15382,-0.0828 -0.0631,-0.0237 -0.16568,-0.0355 -0.30764,-0.0355 -0.11833,0 -0.2406,0.0197 -0.36681,0.0592 -0.11832,0.0395 -0.22875,0.0986 -0.3313,0.17748 -0.10255,0.0789 -0.18537,0.18143 -0.24848,0.30764 -0.0631,0.11833 -0.0947,0.25637 -0.0947,0.41413 v 2.87525 c 0,0.1341 -0.0118,0.25637 -0.0355,0.3668 -0.0237,0.10255 -0.0868,0.18537 -0.18932,0.24848 -0.10255,0.0631 -0.2682,0.0947 -0.49696,0.0947 z m 6.36578,-0.0118 c -0.36285,0 -0.70599,-0.0749 -1.02941,-0.22482 -0.32341,-0.14987 -0.60739,-0.35497 -0.85192,-0.61528 -0.24453,-0.26819 -0.43779,-0.57978 -0.57978,-0.93475 -0.14199,-0.36285 -0.21299,-0.74937 -0.21299,-1.15956 0,-0.39441 0.071,-0.76516 0.21299,-1.11224 0.14199,-0.35497 0.33525,-0.66261 0.57978,-0.92292 0.25242,-0.2682 0.54034,-0.47724 0.86376,-0.62711 0.32341,-0.14988 0.6626,-0.22482 1.01757,-0.22482 0.37863,0 0.71783,0.0749 1.01758,0.22482 0.29975,0.14987 0.55218,0.35891 0.75727,0.62711 0.21298,0.26031 0.37469,0.56795 0.48512,0.92292 0.11044,0.34708 0.1696,0.72177 0.17749,1.12407 0,0.4023 -0.0552,0.78093 -0.16565,1.1359 -0.10255,0.34708 -0.26031,0.65472 -0.4733,0.92292 -0.20509,0.2682 -0.46146,0.48118 -0.7691,0.63894 -0.29975,0.14988 -0.64288,0.22482 -1.02941,0.22482 z m 0.18932,-1.38438 c 0.27609,0 0.52062,-0.0631 0.7336,-0.18932 0.22087,-0.1341 0.39441,-0.31553 0.52062,-0.54429 0.1341,-0.22875 0.20115,-0.48906 0.20115,-0.78093 0,-0.29975 -0.067,-0.564 -0.20115,-0.79276 -0.12621,-0.22876 -0.29975,-0.41019 -0.52062,-0.54429 -0.21298,-0.1341 -0.45751,-0.20115 -0.7336,-0.20115 -0.27609,0 -0.52456,0.067 -0.74543,0.20115 -0.22087,0.12621 -0.39836,0.30764 -0.53246,0.54429 -0.12621,0.22876 -0.18931,0.49301 -0.18931,0.79276 0,0.29187 0.0631,0.55218 0.18931,0.78093 0.1341,0.22876 0.31159,0.41019 0.53246,0.54429 0.22875,0.12621 0.47723,0.18932 0.74543,0.18932 z m 2.18898,1.38438 c -0.22087,0 -0.38258,-0.0355 -0.48513,-0.10649 -0.10255,-0.0789 -0.1696,-0.20116 -0.20115,-0.36681 v -7.28869 c 0,-0.1341 0.008,-0.25242 0.0237,-0.35497 0.0237,-0.11043 0.0828,-0.1972 0.17748,-0.26031 0.10255,-0.071 0.26031,-0.10649 0.47329,-0.10649 0.22876,0 0.39047,0.0316 0.48513,0.0947 0.0947,0.0631 0.15382,0.1499 0.17748,0.26031 0.0315,0.10255 0.0473,0.22087 0.0473,0.35497 v 7.05205 c 0,0.1341 -0.0118,0.25637 -0.0355,0.3668 -0.0237,0.11043 -0.0868,0.1972 -0.18932,0.26031 -0.0947,0.0631 -0.25242,0.0947 -0.47329,0.0947 z"
       id="text21"
       transform="matrix(1.0718247,0,0,1.0718247,86.642095,-101.27556)"
       aria-label="Marvin&#10;Award" /></g></svg>
