<?xml version="1.0" encoding="UTF-8" standalone="no"?>
<!-- Created with Inkscape (http://www.inkscape.org/) -->

<svg
   width="53.810215mm"
   height="100mm"
   viewBox="0 0 53.810215 100"
   version="1.1"
   id="svg1"
   xml:space="preserve"
   xmlns="http://www.w3.org/2000/svg"
   xmlns:svg="http://www.w3.org/2000/svg"><defs
     id="defs1" /><g
     id="layer1"
     transform="translate(-292.50477,117.99121)"><g
       id="g14"
       style="opacity:1"
       transform="matrix(0.40489486,0,0,0.40489486,145.4015,-134.62348)"><path
         id="path14"
         style="baseline-shift:baseline;display:inline;overflow:visible;vector-effect:none;enable-background:accumulate;stop-color:#000000;stop-opacity:1"
         d="m 430.91375,41.08018 c -3.32613,-0.04088 -11.11816,0.485688 -17.30644,2.345593 -5.23361,1.572978 -8.98554,3.209356 -13.67358,5.968628 -4.06621,2.393279 -5.45231,3.393256 -9.08213,6.554639 -5.93082,5.165453 -10.17899,10.377363 -13.62088,16.716809 -2.49804,4.600991 -2.78265,5.205021 -4.01009,8.505941 -1.5695,4.220756 -2.77731,9.006001 -3.3693,13.341821 -0.48217,3.540621 -0.48891,13.270259 -0.01,16.798979 0.34582,2.5459 0.51713,3.34719 1.7911,8.38863 1.92268,7.60864 7.08851,17.24496 12.6721,23.66212 1.02372,1.17656 3.33982,3.51503 5.1971,5.25395 0.91897,0.86039 1.75338,1.66881 2.35541,2.27324 0.30102,0.30222 0.54543,0.55376 0.70693,0.73071 0.009,0.0103 0.0108,0.0136 0.0196,0.0232 -0.0691,0.0886 -0.13965,0.17999 -0.24805,0.30644 -0.28775,0.33564 -0.69205,0.77728 -1.13688,1.23455 -0.78691,0.80893 -1.93172,2.43137 -2.92178,3.99046 -0.49502,0.77955 -0.94566,1.53869 -1.27745,2.16214 -0.16589,0.31173 -0.30058,0.58703 -0.40049,0.82579 -0.0999,0.23876 -0.17932,0.40378 -0.17932,0.67179 0,-0.0386 7.3e-4,-0.0565 10e-4,-0.0615 -5.6e-4,0.007 -0.004,0.0339 -0.0129,0.0615 -0.0187,0.0548 -0.0527,0.1412 -0.0977,0.2465 -0.0899,0.21061 -0.2256,0.50105 -0.39481,0.84542 -0.33844,0.68876 -0.81118,1.59283 -1.3317,2.55695 -1.04103,1.92825 -2.2825,4.10425 -3.04684,5.27513 -0.84655,1.2968 -2.79865,3.86466 -4.29121,5.63894 -1.50768,1.79226 -3.23144,3.85117 -3.83594,4.5837 -3.42376,4.14878 -4.44097,8.94766 -2.42001,12.39045 0.35123,0.59833 0.48224,0.85268 0.51573,1.12913 0.0335,0.27646 -0.0308,0.6965 -0.20516,1.56632 -0.1949,0.97236 -0.50339,2.13274 -0.60151,2.37711 -0.0956,0.23806 -0.24402,0.70985 -0.44338,1.36116 -0.19936,0.65131 -0.43756,1.45621 -0.66611,2.25981 -0.44951,1.58059 -1.15655,3.67695 -1.53686,4.57233 -2.1653,5.09778 -3.91807,10.93884 -4.42764,14.8146 -0.41166,3.13141 -0.4153,10.85226 -0.0176,14.68748 0.32304,3.11463 2.03472,10.14052 3.21273,13.20487 0.54004,1.40481 1.01801,2.05601 1.93735,2.6076 0.52495,0.31497 0.66903,0.41964 0.73277,0.56069 0.0638,0.14105 0.0978,0.53839 0.10128,1.39629 0.004,0.99547 0.12,2.85123 0.25994,4.19148 0.23408,2.24158 0.44542,2.83554 2.18539,6.00945 3.33263,6.07913 4.36351,7.63783 6.35724,9.59787 0.67379,0.66241 1.3217,1.08245 2.07274,1.05885 0.75103,-0.0236 1.43519,-0.44971 2.28668,-1.14464 1.23038,-1.00416 2.05027,-1.94967 2.42983,-2.93574 0.37957,-0.98607 0.2561,-2.01277 -0.31265,-2.9316 -0.22076,-0.35664 -0.25258,-0.41475 -0.23977,-0.56637 0.0128,-0.15161 0.14585,-0.51844 0.4625,-1.2268 0.49847,-1.11508 0.70106,-2.05177 0.36742,-2.92747 -0.33365,-0.8757 -1.11298,-1.56182 -2.33009,-2.37918 -0.46869,-0.31475 -0.91032,-0.65769 -1.22835,-0.94517 -0.15901,-0.14374 -0.28866,-0.27565 -0.36949,-0.37103 -0.0291,-0.0343 -0.05,-0.0688 -0.0636,-0.093 0.007,-0.0879 0.0178,-0.33582 0.0677,-0.59066 0.0677,-0.3483 0.17646,-0.77694 0.30851,-1.18133 0.21547,-0.65981 0.41717,-1.13912 0.58187,-1.40456 0.0824,-0.13272 0.15355,-0.20912 0.18759,-0.23461 0.003,-0.002 0.006,-0.004 0.008,-0.006 0.0306,0.0176 0.19088,0.10089 0.41186,0.37311 0.25793,0.31779 0.58451,0.83485 0.97255,1.53479 0.7165,1.29243 1.38738,2.22339 2.11718,2.8422 0.7298,0.61881 1.55077,0.90601 2.40244,0.84336 0.72854,-0.0536 1.43896,-0.37093 2.02933,-0.81649 0.50588,-0.38179 0.84842,-0.89966 1.07436,-1.45107 0.035,0.11684 0.0703,0.20707 0.10128,0.36742 0.12251,0.63417 0.36585,1.2826 0.76585,1.70687 0.15096,0.16015 0.27285,0.48947 0.26355,1.01544 -0.009,0.52598 -0.14872,1.22041 -0.43357,2.0159 -0.4917,1.37318 -0.8152,3.4911 -0.96118,5.60328 -0.14598,2.11219 -0.11752,4.17706 0.19947,5.4808 0.78666,3.23547 1.12325,4.44185 1.70894,6.13089 0.54863,1.58217 1.04615,2.70198 1.66811,3.56051 0.62196,0.85853 1.37514,1.43556 2.32803,1.88877 1.55736,0.7407 4.17434,1.39187 6.98614,1.77302 h 5.1e-4 5.2e-4 5.2e-4 5.1e-4 c 0.0172,0.002 0.0493,0.002 0.0667,0.004 3.17578,0.42196 9.0989,0.47931 11.8551,0.0997 2.62413,-0.36136 6.023,-1.19668 7.48843,-1.88671 0.7103,-0.33446 1.55728,-1.02586 2.2872,-1.73271 0.36496,-0.35342 0.69274,-0.7066 0.94154,-1.02888 0.1244,-0.16114 0.22963,-0.31449 0.31213,-0.46715 0.0825,-0.15266 0.15813,-0.29701 0.15813,-0.5271 0,-1.4e-4 0.0376,-0.20599 0.14262,-0.45734 0.10498,-0.25134 0.26476,-0.56856 0.46302,-0.91777 0.39653,-0.69843 0.94803,-1.52532 1.53531,-2.27325 l 1.14257,-1.45521 -0.0238,-4.14858 c -0.0196,-3.58138 -0.12011,-4.32785 -0.80461,-6.17172 -0.42731,-1.15108 -1.16928,-2.75065 -1.69705,-3.65042 -0.62831,-1.07119 -0.95293,-1.73317 -1.05058,-2.15026 -0.0976,-0.4171 -0.0459,-0.59282 0.19482,-1.00975 0.458,-0.79317 0.52394,-1.86131 0.52193,-5.01365 -0.003,-3.44441 -0.10809,-4.35608 -0.69557,-6.02547 -0.24575,-0.69828 -0.42217,-1.22313 -0.50177,-1.57613 -0.0709,-0.31439 -0.0428,-0.44785 -0.0419,-0.46406 0.0129,-0.007 0.0897,-0.0556 0.35605,-0.0811 0.31901,-0.0306 0.82968,-0.0183 1.5136,0.0103 1.23738,0.0513 2.79428,0.17667 3.36362,0.26355 l 0.73794,0.11318 0.17777,3.43751 c 0.24332,4.72356 0.79449,7.38181 2.0314,9.4139 0.51509,0.84621 0.70499,1.18797 0.68729,1.99212 -0.0177,0.80416 -0.30361,2.10607 -0.89813,4.5744 -0.66078,2.74348 -0.80621,3.99266 -0.78135,6.74791 0.0291,3.21719 0.11203,3.59864 1.08986,5.5609 0.27233,0.5465 0.52013,1.08571 0.69711,1.5074 0.0885,0.21084 0.15964,0.39184 0.20516,0.52349 0.0313,0.0905 0.0439,0.18651 0.0486,0.19533 v 5.2e-4 h 5.2e-4 v -5.2e-4 c 0.001,-0.003 0.002,-0.0183 0.002,-0.0506 0,0.67844 0.45399,1.23613 1.09761,1.75183 0.64363,0.5157 1.53132,1.00985 2.62723,1.48828 2.19181,0.95687 5.21553,1.84155 8.67182,2.4846 2.93991,0.54698 4.17212,0.61695 10.79107,0.61495 5.36763,-0.002 9.11485,-0.21162 11.78119,-0.75189 2.66633,-0.54027 4.29712,-1.43994 5.24206,-2.83187 0.39597,-0.58327 1.08667,-1.49881 1.49603,-1.98437 0.60225,-0.71436 0.99091,-1.27526 1.06454,-1.97249 0.0736,-0.69724 -0.16047,-1.38553 -0.57413,-2.40451 -1.03162,-2.54119 -2.52961,-4.98644 -4.53719,-7.4197 -0.75709,-0.91764 -1.15642,-1.44326 -1.34565,-1.82056 -0.18923,-0.37729 -0.21498,-0.62628 -0.21498,-1.19941 0,-3.11552 -1.05338,-5.89773 -3.23029,-8.58397 l -0.97823,-1.20665 -0.15452,-3.59409 c -0.0446,-1.04501 -0.12391,-2.11208 -0.21859,-2.99775 -0.0947,-0.88566 -0.1845,-1.54522 -0.32246,-1.95699 -0.23873,-0.71261 -0.37276,-2.48754 -0.32246,-4.31291 0.0503,-1.82537 0.26701,-3.75777 0.59376,-4.91753 0.4619,-1.63937 1.39977,-4.40887 2.2717,-6.80269 0.43596,-1.19691 0.8567,-2.30422 1.19114,-3.12901 0.16723,-0.41239 0.31273,-0.75513 0.42581,-0.99838 0.0566,-0.12163 0.10637,-0.21843 0.14108,-0.28112 0.0173,-0.0313 0.0372,-0.057 0.0444,-0.0667 0.0219,-0.0177 0.0291,-0.018 0.045,-0.0269 0.0203,0.0287 0.15158,0.18535 0.2465,0.58601 0.19742,0.83343 0.91288,2.93543 1.65984,5.01365 0.37349,1.03912 0.75169,2.05808 1.07022,2.88044 0.31852,0.82237 0.55522,1.41031 0.73071,1.72496 0.3154,0.56549 0.76481,1.15773 1.20509,1.48829 0.0538,0.0404 0.0905,0.0729 0.11421,0.0946 -0.004,0.01 -0.008,0.0217 -0.0129,0.0362 -0.0874,0.24417 -0.4827,0.90113 -1.26917,2.12493 -0.88101,1.37093 -2.26382,3.45227 -3.0608,4.60747 -0.64862,0.94014 -1.03119,1.53082 -1.26556,2.09755 -0.23436,0.56673 -0.29078,1.08761 -0.29869,1.75235 -0.0157,1.3202 0.34739,2.42714 1.06454,3.16208 0.71715,0.73495 1.77964,1.04322 2.93935,0.83767 0.40266,-0.0714 0.76639,-0.2886 1.1896,-0.57826 0.42322,-0.28965 0.88026,-0.66312 1.3317,-1.07797 0.90289,-0.82971 1.77629,-1.80364 2.24224,-2.65048 0.14404,-0.26176 0.32257,-0.52206 0.48059,-0.71262 0.12347,-0.1489 0.27775,-0.25338 0.2837,-0.27182 v -5.1e-4 -5.2e-4 -5.2e-4 h -5.1e-4 v -5.1e-4 c 0.0727,-0.01 0.19398,0.017 0.38292,0.16846 0.22154,0.17755 0.48018,0.5107 0.67954,0.95291 0.19964,0.44281 0.1819,1.07101 -0.1173,1.82005 -0.2114,0.52921 -4.06836,3.84818 -2.55437,5.66632 0.86547,1.03934 -1.19166,2.64428 -1.19166,2.64428 -0.64558,0.63452 -1.13638,1.16807 -1.47846,1.61954 -0.34208,0.45147 -0.57619,0.7908 -0.57619,1.2516 0,0.68146 0.37069,1.29428 0.90227,1.77147 0.53158,0.47719 1.24105,0.83626 2.03915,1.00201 0.57474,0.11937 1.58009,0.59347 2.00763,0.94154 0.90939,0.74031 2.00732,1.0098 3.06855,0.78704 1.06124,-0.22277 2.07341,-0.90835 2.93935,-1.97249 0.45502,-0.55916 1.0396,-1.6982 1.83193,-3.3967 0.79233,-1.69851 1.75079,-3.91868 2.78898,-6.4766 1.09119,-2.68848 1.1686,-3.08127 1.29914,-6.91793 0.0827,-2.43164 0.13959,-3.67528 0.26769,-4.26382 0.0641,-0.29426 0.12477,-0.39724 0.19689,-0.47439 0.0721,-0.0772 0.20454,-0.15776 0.4532,-0.28732 0.61924,-0.32262 1.06643,-0.9452 1.43557,-2.01538 0.36915,-1.07018 0.70994,-2.64269 1.15445,-5.086 0.87677,-4.81756 0.88657,-16.40848 -0.002,-20.66799 -0.64928,-3.11232 -0.56517,-2.84449 -2.68562,-8.79687 -0.85246,-2.393 -2.07631,-6.02713 -2.71301,-8.05274 -0.64121,-2.03993 -1.43197,-4.49597 -1.76372,-5.47822 -0.65307,-1.93366 -0.70076,-2.93512 -0.37879,-7.75043 0.20813,-3.11238 0.15463,-3.68167 -0.45888,-5.45083 -0.82289,-2.37281 -2.19221,-4.14475 -6.14847,-8.03155 -4.36116,-4.28461 -6.31697,-7.13737 -8.8594,-12.92945 -1.55638,-3.5457 -2.73387,-5.84243 -3.62304,-6.89053 -0.13037,-0.15367 -0.25798,-0.34693 -0.34365,-0.51212 -0.0648,-0.12486 -0.0745,-0.17683 -0.0858,-0.20463 0.0273,-0.0394 0.0533,-0.0786 0.10335,-0.14108 0.13922,-0.1739 0.35419,-0.4164 0.62322,-0.70073 0.53808,-0.56867 1.29088,-1.307 2.11718,-2.06293 5.71325,-5.22674 9.1147,-9.38872 12.53877,-15.35151 3.87336,-6.74517 5.99556,-12.61028 7.61556,-21.0349 0.41929,-2.18097 0.51325,-4.12417 0.49403,-10.01747 -0.0242,-7.447855 -0.32967,-10.282126 -1.64848,-15.338085 -2.31116,-8.860399 -6.33198,-17.174235 -11.82409,-23.603727 -5.62348,-6.583289 -11.1696,-11.677038 -18.31671,-15.40216 -5.73063,-2.986844 -10.84638,-5.060277 -17.67385,-6.521566 -2.72865,-0.584011 -7.93463,-0.917587 -11.60291,-0.962732 z m 0.66042,4.915979 c 8.38481,0 16.83905,2.044581 24.74991,5.991882 0.70612,0.352335 1.734,0.864432 2.28307,1.138949 0.49519,0.247578 1.5332,0.89087 2.21485,1.378727 0.71738,0.513424 1.76463,1.220162 2.36161,1.592151 1.01543,0.632742 3.4281,2.492956 4.82813,3.736206 0.78951,0.701094 2.33655,2.248206 3.76773,3.74034 1.43117,1.492134 2.78603,2.982319 3.12849,3.446818 0.45877,0.622232 1.44373,1.949191 2.18953,2.951241 0.65048,0.873977 1.66136,2.441323 2.56677,3.941362 0.90542,1.50004 1.72214,2.973952 1.96061,3.552754 0.16058,0.389729 0.78435,1.873768 1.39268,3.31246 0.60802,1.437963 1.20705,2.854837 1.32808,3.14296 0.5475,1.303268 1.72715,5.842488 2.24431,8.757605 1.47042,8.288366 1.15495,17.153476 -0.88109,24.871346 -0.61905,2.3466 -0.91602,3.45109 -1.20871,3.89847 -0.14634,0.22369 -0.26186,0.31066 -0.51986,0.42168 -0.25801,0.11103 -0.65767,0.21433 -1.22628,0.37517 -1.51277,0.42793 -4.10746,1.07547 -6.49056,1.6366 -2.3831,0.56113 -4.60708,1.04245 -5.22811,1.12499 -0.73611,0.0978 -2.1421,0.35063 -3.17603,0.56844 -4.54588,0.95762 -12.16833,1.93559 -21.62866,2.76934 -5.05326,0.44535 -8.80322,0.5562 -21.64674,0.64079 -8.54956,0.0563 -17.20236,0.003 -19.08565,-0.10955 -4.83462,-0.2893 -10.61874,-0.75405 -15.49622,-1.21698 -4.87748,-0.46294 -8.91289,-0.9421 -10.02161,-1.20096 -0.30651,-0.0716 -0.61954,-0.17069 -0.85938,-0.26562 -0.16485,-0.0652 -0.31052,-0.16373 -0.35708,-0.18707 -0.0279,-0.0465 -0.0754,-0.12597 -0.1173,-0.21342 -0.0809,-0.1688 -0.1835,-0.40228 -0.29921,-0.67748 -0.23144,-0.55038 -0.51498,-1.26968 -0.79685,-2.01951 -0.56375,-1.49965 -1.13076,-3.16106 -1.26918,-3.76205 -0.13484,-0.58546 -0.57852,-2.48775 -0.98857,-4.23437 -1.30347,-5.55211 -1.45635,-17.566386 -0.29507,-23.066288 0.37811,-1.790775 0.98562,-4.062765 1.59009,-6.043042 0.60447,-1.980277 1.23778,-3.716861 1.54667,-4.26744 0.1167,-0.208005 0.21782,-0.430552 0.29507,-0.63872 0.0772,-0.208167 0.14138,-0.366777 0.14263,-0.607198 -1e-4,0.01972 4e-4,0.0312 0.002,0.03514 l 5.2e-4,5.16e-4 v 5.17e-4 h 5.2e-4 5.1e-4 l 5.2e-4,-5.17e-4 5.2e-4,-5.16e-4 c 0.009,-0.01483 0.0322,-0.146876 0.0858,-0.285254 0.0729,-0.188434 0.18444,-0.446677 0.32608,-0.749825 0.28329,-0.606294 0.68597,-1.398545 1.14463,-2.261878 0.91732,-1.726667 2.06625,-3.739548 2.96881,-5.144389 1.97405,-3.072627 4.88894,-6.733773 7.58972,-9.529651 3.98757,-4.128012 11.29161,-9.230878 16.00574,-11.197249 0.46938,-0.195792 0.94337,-0.40967 1.33428,-0.599447 0.39091,-0.189777 0.668,-0.326921 0.87695,-0.484208 0.14432,-0.10863 0.60083,-0.328769 0.82373,-0.387056 0.41651,-0.108912 1.76274,-0.568324 3.18171,-1.070219 5.21298,-1.843847 11.58231,-2.806547 18.66036,-2.806547 z m 50.55864,81.482301 c -0.0333,0.11269 -1.28538,2.52844 -1.98438,3.76039 -1.8429,3.25614 -3.80517,6.13308 -5.32629,7.83208 -0.44711,0.49939 -1.29857,1.45169 -1.89239,2.11718 -5.79962,6.49946 -11.32337,10.57745 -18.99832,14.02912 -4.39023,1.97443 -6.68627,2.74356 -11.47837,3.84008 -3.34759,0.766 -8.03742,1.20565 -10.78539,1.26349 -3.32406,0.0699 -7.19481,-0.22996 -11.17141,-1.00769 -5.2541,-1.02757 -8.54198,-2.04057 -12.53722,-3.85972 -7.74716,-3.5275 -14.45382,-8.44916 -19.59415,-14.37276 -2.46739,-2.84338 -5.26648,-6.65523 -6.32417,-8.58397 -0.24403,-0.44497 -0.3008,-0.60101 -0.34933,-0.71676 0.29954,-0.007 0.59901,0.0141 0.8981,0.0274 0.6589,0.0365 1.54197,0.10423 2.51767,0.1912 1.95141,0.17394 4.27576,0.427 5.93194,0.66405 0.23932,0.0342 0.51693,0.15166 1.00562,0.53691 0.48869,0.38525 1.1596,1.02374 2.13114,2.0159 2.52725,2.5809 3.84038,3.91647 4.66793,4.63848 0.41377,0.361 0.71083,0.57651 1.00769,0.709 0.29687,0.13249 0.58064,0.15451 0.81442,0.15451 0.47595,0 0.94232,-0.21423 1.59784,-0.63303 0.65552,-0.41879 1.51426,-1.06885 2.7342,-2.04484 1.76702,-1.41367 3.57933,-2.8873 4.0783,-3.31814 0.38566,-0.33299 1.17634,-0.70394 1.45676,-0.74414 -0.019,0.003 0.17366,-0.0143 0.42581,-0.0238 0.25216,-0.01 0.59912,-0.0183 1.0294,-0.0289 0.86056,-0.0212 2.05168,-0.0457 3.48609,-0.0687 2.86882,-0.0459 6.71149,-0.0908 10.83035,-0.12661 8.24422,-0.0718 16.33244,-0.24599 18.15806,-0.40256 5.17131,-0.44352 8.6227,-0.80437 13.21883,-1.38286 1.18895,-0.14965 2.35493,-0.26671 3.26751,-0.33383 0.45629,-0.0336 0.85005,-0.0537 1.1467,-0.0605 0.2467,-0.006 0.45482,0.009 0.50074,0.0109 0.019,0.0136 0.18209,0.0853 0.36018,0.19844 0.21368,0.13568 0.49187,0.32951 0.80512,0.5643 0.62649,0.46957 1.39849,1.10149 2.15594,1.77354 1.78003,1.57935 2.80208,2.45794 3.55689,2.92953 0.3774,0.23579 0.70205,0.377 1.03715,0.41187 0.3351,0.0349 0.64391,-0.06 0.89607,-0.18552 0.20006,-0.0996 0.32421,-0.22224 0.49454,-0.38861 0.17034,-0.16637 0.36202,-0.37201 0.56793,-0.61133 0.41184,-0.47863 0.8812,-1.08438 1.3224,-1.71463 2.37001,-3.38556 3.41541,-4.91733 4.04109,-5.60534 0.31285,-0.344 0.49169,-0.46525 0.72296,-0.56637 0.23127,-0.10111 0.55696,-0.17722 1.07021,-0.33797 0.47724,-0.14946 1.00304,-0.28861 1.4547,-0.38705 0.34523,-0.0872 0.69952,-0.11982 1.05114,-0.16274 z m -17.58494,27.35498 c 0.10843,0.0778 0.35971,0.28194 0.61443,0.5824 0.32293,0.38089 0.69716,0.90588 1.07384,1.5043 0.75336,1.19685 1.51772,2.69291 1.97869,3.9703 0.82601,2.28892 3.41962,7.17584 4.80849,9.05112 1.78883,2.41531 2.32867,3.00955 5.53713,6.09731 1.63136,1.56999 2.68834,2.64867 3.30109,3.38119 0.10438,0.12479 0.1243,0.18049 0.20309,0.28525 -0.0482,-0.0367 -0.0458,-0.0282 -0.0977,-0.0687 -0.77224,-0.60233 -2.17658,-1.40996 -3.24631,-1.87895 -1.68866,-0.74034 -2.31528,-0.85459 -4.76767,-0.84957 -2.60153,0.006 -5.18746,0.58075 -7.35149,1.53738 -2.16403,0.95664 -3.91767,2.28891 -4.80642,3.90415 -0.14241,0.25882 -0.29869,0.49613 -0.42013,0.65216 -0.0204,-0.0476 -0.047,-0.0858 -0.047,-0.20102 0,-0.16981 -0.0292,-0.2801 -0.0682,-0.45889 -0.039,-0.1788 -0.0918,-0.39586 -0.15813,-0.64285 -0.13253,-0.49398 -0.3143,-1.10399 -0.51366,-1.72031 -1.41426,-4.37212 -2.3862,-8.08899 -3.50625,-13.40642 -0.84984,-4.03464 -1.25812,-5.90882 -1.32963,-6.69933 -0.0164,-0.18177 -0.0128,-0.29964 -0.006,-0.35709 l 5.2e-4,5.2e-4 c 0.0199,0.003 0.12118,-0.04 0.33279,-0.12557 1.30689,-0.53078 4.89949,-2.50846 6.81251,-3.72691 0.43533,-0.27727 0.87469,-0.515 1.21491,-0.66766 0.17011,-0.0763 0.3169,-0.13001 0.41031,-0.15658 0.0106,-0.003 0.0208,-0.005 0.0305,-0.006 z m 0.0563,0 c 0.002,3.3e-4 0.005,7.8e-4 0.006,0.001 -10e-4,-2.3e-4 -0.003,-4e-4 -0.006,-0.001 z m -67.94262,0.0367 c 0.3382,-0.0146 0.73752,0.14087 1.48466,0.53227 1.25373,0.65673 1.77005,0.97459 2.06292,1.63298 0.29288,0.65838 0.37408,1.84234 0.42737,4.13669 0.0968,4.16872 -0.32167,7.31285 -1.83555,13.72268 -0.38107,1.61349 -0.81997,3.74913 -0.98444,4.80074 -0.14559,0.93084 -0.29241,1.66804 -0.44131,2.20865 -0.13884,0.50407 -0.28609,0.79607 -0.37311,0.91829 -0.0812,-0.0745 -0.24849,-0.25578 -0.4532,-0.64647 -0.42392,-0.80902 -1.22309,-1.61765 -2.14095,-2.32027 -0.91785,-0.70262 -1.94499,-1.28655 -2.88251,-1.53738 -2.03308,-0.54394 -5.87742,-0.4698 -7.85379,0.15658 -2.21923,0.70336 -3.3913,1.42887 -6.08593,3.7636 -0.27498,0.23825 -0.4728,0.39849 -0.72451,0.61133 0.23024,-0.29477 0.30063,-0.44133 0.60927,-0.80667 7.17581,-8.49419 9.23877,-11.55995 12.7739,-18.99057 1.94237,-4.08275 3.05952,-5.80751 4.41782,-6.94531 0.94963,-0.79545 1.48412,-1.14991 1.85725,-1.2206 0.0466,-0.009 0.0938,-0.0144 0.14211,-0.0165 z m 9.99215,5.21829 c 0.0331,-10e-4 0.10134,-8.3e-4 0.22324,0.0191 0.2689,0.0439 0.71803,0.17469 1.35754,0.40411 8.46601,3.03708 14.09657,3.86635 20.6251,4.27364 4.98669,0.31108 13.4862,-0.65167 18.99781,-2.4474 1.5097,-0.49188 2.47297,-0.77388 3.03909,-0.87694 0.27792,-0.0506 0.45259,-0.0526 0.52348,-0.0429 0.022,0.0667 0.0506,0.16698 0.0858,0.29301 0.0705,0.25205 0.16331,0.60619 0.26769,1.03094 0.20874,0.84949 0.47024,1.98548 0.73225,3.19567 1.91987,8.86766 2.33315,10.45661 3.71502,14.27149 0.51616,1.42496 1.21623,3.81137 1.53324,5.23017 0.32516,1.45537 0.78174,3.47664 1.01751,4.49791 0.18473,0.80015 0.22809,1.05981 0.28112,1.35754 -0.25728,-0.2116 -0.60166,-0.5267 -1.08004,-1.00769 -1.01226,-1.01777 -2.54516,-2.67369 -4.80642,-5.17798 -2.29856,-2.54558 -4.781,-5.15202 -5.66012,-5.91385 l -1.59009,-1.37872 -7.68945,-0.0238 c -11.07249,-0.0336 -13.5251,0.0114 -16.54111,0.30489 -2.32844,0.22658 -3.57873,0.34556 -4.67155,0.9064 -1.09282,0.56083 -1.89091,1.49664 -3.37499,3.22668 -3.39474,3.95733 -6.30114,7.28278 -8.45116,9.67951 -1.07501,1.19836 -1.96231,2.16556 -2.62309,2.85926 -0.53324,0.55982 -0.80833,0.80218 -0.98082,0.95498 0.10521,-0.45803 0.24285,-1.04339 0.39687,-1.69499 0.61825,-2.61561 1.1022,-5.78329 1.83193,-11.94914 0.23247,-1.96417 0.55144,-4.64426 0.709,-5.95313 0.15796,-1.31216 0.54998,-4.64495 0.87075,-7.4104 0.41772,-3.60137 0.6827,-5.75834 0.88522,-7.03729 0.16554,-1.04536 0.34144,-1.48702 0.3762,-1.59112 z m 74.56703,25.09511 0.0155,0.0155 c 0.095,0.0976 0.31013,0.48616 0.53898,1.1467 0.22885,0.66055 0.49657,1.59285 0.83613,2.8205 0.44428,1.60631 1.21572,4.28392 1.71669,5.96243 0.49825,1.66934 1.08015,3.69916 1.28519,4.48086 0.23185,0.88393 1.17625,3.63719 2.13682,6.2637 3.8479,10.52145 4.2553,12.50856 4.24832,20.84162 -0.003,3.27279 -0.14234,6.85785 -0.27388,7.75199 -0.20424,1.38839 -0.42948,2.62759 -0.64027,3.55275 -0.10539,0.46258 -0.20739,0.84797 -0.29714,1.12706 -0.0766,0.23818 -0.17453,0.41509 -0.1788,0.4346 v 5.2e-4 h 5.1e-4 v 5.2e-4 c -0.036,0.0344 -0.15768,0.10021 -0.46198,0.0915 -0.32459,-0.009 -0.80237,-0.1062 -1.37925,-0.30437 -1.15377,-0.39635 -2.7092,-1.17827 -4.47621,-2.28927 -1.83492,-1.15369 -3.32011,-1.9011 -4.3832,-2.127 -0.97363,-0.20689 -1.49963,-0.35664 -1.73012,-0.49041 -0.23048,-0.13377 -0.26397,-0.21344 -0.39688,-0.62477 -0.14686,-0.45447 -0.43431,-1.21474 -0.65784,-1.74201 -0.0866,-0.20416 -0.40535,-1.07019 -0.81287,-2.21899 -0.40753,-1.1488 -0.91634,-2.60743 -1.4273,-4.09742 -1.386,-4.04179 -1.95262,-6.16064 -2.2717,-8.46098 -0.52944,-3.81672 -0.84721,-4.95192 -1.9451,-6.95513 -0.40737,-0.74326 -0.64784,-1.29621 -0.97307,-2.63292 -0.32523,-1.33671 -0.72069,-3.43288 -1.39061,-7.14426 -0.3943,-2.18446 -0.9247,-5.06711 -1.18132,-6.41253 -0.27286,-1.43058 -0.29933,-2.18051 -0.20722,-2.37867 0.0461,-0.0991 0.0835,-0.14209 0.29093,-0.21704 0.20741,-0.0749 0.56409,-0.13677 1.05265,-0.19327 0.81122,-0.0938 2.58975,-0.4785 4.08399,-0.8692 3.20022,-0.83676 6.35434,-2.5559 7.95145,-4.42557 0.39402,-0.46126 0.70688,-0.77492 0.86507,-0.87333 0.0284,-0.0177 0.049,-0.0274 0.0625,-0.0331 z m -103.20921,3.42976 c 0.0559,-0.003 0.20956,0.0318 0.44907,0.17209 3.24631,1.90097 5.93609,3.01183 9.71724,4.01164 l 2.4138,0.63665 0.0548,0.60151 c 0.0169,0.18384 0.01,0.74224 -0.0274,1.40044 -0.0372,0.6582 -0.0995,1.44272 -0.17983,2.18539 -0.31893,2.95058 -0.69733,8.0739 -1.16169,15.72256 -0.1576,2.596 -0.55672,6.06221 -0.86765,7.60367 -0.32314,1.60193 -0.76091,3.80442 -0.9741,4.89841 -0.26759,1.37316 -1.07554,4.55253 -1.87327,7.48843 -0.39887,1.46796 -0.79567,2.87939 -1.12293,3.98425 -0.32726,1.10486 -0.62012,1.96634 -0.68368,2.09755 -0.0969,0.20007 -0.16865,0.33303 -0.21859,0.40049 -0.0499,0.0675 -0.0607,0.0738 -0.11162,0.0956 -0.10192,0.0436 -0.47332,0.0822 -1.23041,0.0822 -2.26742,0 -5.11237,1.13169 -8.82996,3.38842 -0.76592,0.46495 -1.51988,0.88866 -2.10736,1.19166 -0.29374,0.1515 -0.54572,0.27213 -0.73071,0.3514 -0.0925,0.0396 -0.16842,0.0685 -0.21652,0.0842 -0.008,0.003 -0.0155,0.005 -0.0222,0.006 -0.006,-0.005 -0.0137,-0.0137 -0.0269,-0.0279 -0.0396,-0.0428 -0.10132,-0.14626 -0.14056,-0.31058 -0.10051,-0.42097 -0.29101,-1.10345 -0.43357,-1.55649 -0.60087,-1.90947 -1.39254,-5.86132 -1.83399,-9.20513 -1.07121,-8.11395 8e-5,-15.61072 3.55068,-24.72665 1.76199,-4.52378 3.19147,-9.18816 5.40226,-17.62115 0.41168,-1.57034 0.75868,-2.48746 0.99994,-2.79879 0.12063,-0.15566 0.14925,-0.15312 0.20515,-0.15607 z m 71.82249,2.50786 3.2303,0.16588 1.21284,1.39061 c 2.37419,2.71948 3.78925,4.88874 6.45697,9.91206 l 2.56057,4.82245 -0.002,2.12493 c -8.7e-4,1.10235 -0.009,1.6094 -0.17777,2.15232 -0.16892,0.54292 -0.53044,1.19611 -1.27692,2.49443 -4.28786,7.45783 -8.01438,12.01876 -15.3324,18.76939 -3.74241,3.45225 -8.49872,6.95429 -11.90625,8.77931 -0.8946,0.47911 -2.49081,0.77441 -4.0938,0.78703 -1.60299,0.0126 -3.2297,-0.25453 -4.19096,-0.72657 -0.0589,-0.0289 -0.3418,-0.2191 -0.68988,-0.50022 -0.34808,-0.28112 -0.79163,-0.66036 -1.3007,-1.11312 -1.01814,-0.90552 -2.3018,-2.10353 -3.65611,-3.40444 -2.70862,-2.60181 -5.70312,-5.62517 -7.43158,-7.57421 -0.38397,-0.43297 -1.09039,-1.20627 -1.58027,-1.73013 -2.04528,-2.18715 -5.19778,-5.87318 -7.90598,-9.17205 -1.3541,-1.64944 -2.59947,-3.20448 -3.53932,-4.42557 -0.46993,-0.61055 -0.86295,-1.13737 -1.15445,-1.54874 -0.2915,-0.41137 -0.48858,-0.73592 -0.52296,-0.81287 -0.23104,-0.51719 -0.29215,-0.93362 -0.094,-1.81643 0.19806,-0.8828 0.68487,-2.18485 1.54512,-4.23643 1.31583,-3.13802 1.56653,-3.5545 3.10524,-5.08393 0.9666,-0.96076 3.05652,-3.12157 4.66225,-4.82038 l 2.7776,-2.93729 3.16208,-0.17001 c 1.85934,-0.0996 5.42429,-0.34812 7.94112,-0.55449 6.10768,-0.5008 24.04734,-0.98622 28.20138,-0.77153 z m -52.75233,4.99039 c -0.12377,0.82933 -0.23334,2.03761 -0.26149,3.36104 -0.0476,2.24548 -0.18015,3.00537 -0.79891,4.59197 -0.20997,0.53842 -0.42684,1.05747 -0.60514,1.45521 -0.0892,0.19887 -0.16905,0.36753 -0.23047,0.48834 -0.0451,0.0887 -0.10108,0.16902 -0.10284,0.17776 v 5.2e-4 h 5.2e-4 5.1e-4 l 5.2e-4,-5.2e-4 c 0.003,-0.002 0.01,-0.009 0.0212,-0.0217 -0.14537,0.16417 -0.15847,0.25186 -0.21136,0.39067 -0.0529,0.13881 -0.10546,0.30324 -0.16019,0.49196 -0.10944,0.37746 -0.22338,0.84774 -0.31988,1.33429 -0.18733,0.94446 -0.42677,2.1279 -0.52969,2.62103 -0.0454,0.21723 -0.0842,0.2232 -0.14624,0.33383 -0.006,-0.0443 -0.003,-0.0204 -0.006,-0.0703 -0.0121,-0.22884 -0.0152,-0.54297 -0.0134,-0.91416 0.004,-0.74238 0.0334,-1.7144 0.0837,-2.74402 0.10067,-2.05923 0.28275,-4.36689 0.46715,-5.53299 0.15279,-0.96624 0.54904,-2.249 0.7519,-2.61328 0.28329,-0.50869 0.85027,-1.52686 1.26142,-2.26188 0.24542,-0.43874 0.51755,-0.73528 0.79892,-1.08779 z m 66.22076,1.6583 c 0.004,0.009 0.002,0.005 0.006,0.0134 0.10115,0.23187 0.21615,0.53805 0.32246,0.85731 0.0933,0.28012 0.10606,0.43024 0.17363,0.69711 -0.18823,-0.2689 -0.40524,-0.48563 -0.50022,-0.79271 -0.0923,-0.29823 -0.0401,-0.54903 -0.002,-0.77515 z m 4.52582,16.71474 c 0.0357,0.026 0.0594,0.0336 0.0956,0.0641 0.10915,0.0916 0.1437,0.12868 0.18552,0.21498 0.0418,0.0863 0.0901,0.24824 0.12506,0.55293 0.0701,0.60937 0.0837,1.74521 0.0837,3.82613 v 4.41006 l -1.98437,5.5547 c -3.08889,8.64529 -3.72133,11.24067 -3.72639,15.31638 -10e-4,0.90959 -0.0322,1.7792 -0.078,2.43758 -0.0229,0.32918 -0.0473,0.60654 -0.0765,0.80098 -0.0141,0.0941 -0.0794,0.20469 -0.13868,0.22462 -0.17769,0.0597 -0.59964,-0.0446 -1.27331,-0.17002 -0.972,-0.181 -2.73618,-0.31471 -4.0411,-0.31419 -1.78593,7.1e-4 -4.59154,0.19089 -7.11533,0.43718 -1.2619,0.12315 -2.45051,0.26076 -3.40444,0.39688 -0.95394,0.13612 -1.6263,0.24625 -2.04845,0.40979 -1.03619,0.40143 -1.87057,0.96822 -2.53525,1.80661 -0.66467,0.8384 -1.16252,1.92645 -1.62729,3.38326 -0.23629,0.74066 -0.80186,1.99045 -1.20096,2.6541 -0.25614,0.42594 -0.46556,0.72781 -0.66197,0.92966 -0.41362,0.42507 -0.57219,0.0579 -0.78135,-0.53497 -0.0554,-0.13502 -0.18796,-0.71076 -0.29301,-1.40973 -0.10505,-0.69898 -0.20638,-1.55834 -0.2868,-2.41794 -0.0804,-0.8596 -0.13986,-1.72204 -0.1664,-2.42983 -0.0266,-0.70779 -0.005,-1.29933 0.0253,-1.44746 0.0526,-0.26003 0.0956,-0.43653 0.13488,-0.53123 0.0393,-0.0947 0.0513,-0.112 0.12299,-0.16227 0.14332,-0.10054 0.62779,-0.25482 1.60972,-0.49195 5.36449,-1.29554 11.15004,-5.30594 17.10335,-11.75174 1.60762,-1.74063 3.69732,-4.23297 4.69118,-5.60173 3.39612,-4.67719 6.29768,-10.82347 7.01973,-14.98048 0.0751,-0.43263 0.1604,-0.84283 0.23461,-1.14463 0.003,-0.0132 0.005,-0.0183 0.008,-0.031 z m -74.13707,4.49379 c 0.0738,0.0967 0.12954,0.16151 0.21859,0.28525 0.36181,0.50274 0.83389,1.20813 1.31878,1.98231 5.36835,8.57134 11.18372,14.77181 18.7849,20.02151 0.74914,0.51738 1.44626,1.0039 1.96474,1.36943 0.25923,0.18276 0.47237,0.3345 0.62528,0.44493 0.0765,0.0552 0.13757,0.1 0.17932,0.13126 0.026,0.0195 0.0563,0.0458 0.061,0.0491 l -0.0253,-0.0253 c 0.0776,0.0758 0.11723,0.098 0.18551,0.14573 0.0684,0.0478 0.15188,0.10367 0.24598,0.16433 0.1882,0.12134 0.42088,0.26626 0.66198,0.40825 0.37467,0.22065 1.52118,1.10092 2.38693,1.865 2.09869,1.85226 2.89893,3.70351 3.69694,7.79125 0.0903,0.46244 -0.56961,-0.33543 -0.87852,-0.67022 -0.75445,-0.81765 -1.82821,-1.56744 -2.88303,-2.01745 -0.7676,-0.3275 -1.33035,-0.52633 -2.38849,-0.63252 -1.05813,-0.1062 -2.62979,-0.13896 -5.59966,-0.18965 -3.9289,-0.0671 -6.88387,-0.006 -8.17986,0.20309 -2.55831,0.41307 -5.33485,1.44988 -6.95306,2.64273 -0.34192,0.26374 -1.10602,0.97607 -1.06064,0.48973 0.0415,-0.44475 0.34301,-6.11054 0.39394,-7.36761 0.24779,-6.42014 -0.2553,-9.85419 -2.4784,-16.95503 -0.29363,-0.93788 -0.69636,-3.03528 -0.86145,-4.53513 -0.26824,-2.43685 -0.25288,-2.85524 0.19534,-4.45502 0.10117,-0.39157 0.24793,-0.76798 0.38918,-1.14597 z m -3.14452,12.88293 c 1.7533,5.63203 2.21831,11.76419 1.45108,19.42982 -0.19411,1.93941 -0.36488,3.11082 -0.52142,3.95118 -0.79871,-2.34175 -1.83903,-4.17504 -4.13256,-6.82646 -0.85378,-0.98702 -1.31053,-1.60318 -1.45521,-1.94923 -0.0723,-0.17303 -0.0772,-0.25855 -0.0625,-0.34572 0.0147,-0.0872 0.0643,-0.20108 0.18139,-0.37103 0.42558,-0.61817 0.87577,-1.86334 1.46141,-3.68712 0.58564,-1.82378 1.25316,-4.16827 1.90996,-6.74429 0.27604,-1.08266 0.66748,-2.43607 0.84387,-2.9316 0.12748,-0.35815 0.25907,-0.46097 0.32401,-0.52555 z m -20.25044,13.16044 c 0.002,-1e-5 0.005,0 0.007,0 -10e-4,2.6e-4 -0.003,4.4e-4 -0.004,5.1e-4 h -5.2e-4 -5.1e-4 -5.2e-4 c -4.6e-4,-1.5e-4 -0.001,-2.4e-4 -0.002,-5.1e-4 z m 87.70576,9.50329 v 5.2e-4 c 0.67536,0.0251 1.25281,0.0642 1.67535,0.11524 0.21128,0.0255 0.38332,0.0537 0.50229,0.0816 0.0855,0.02 0.14709,0.0493 0.15607,0.0506 h 5.1e-4 v -5.2e-4 h 5.2e-4 c 0.16726,0.12768 0.54916,0.55294 0.70022,0.81339 0.23851,0.41128 0.88574,1.3508 1.49603,2.1916 0.28755,0.39616 0.53383,0.79935 0.68936,1.10742 0.0478,0.0947 0.0668,0.15344 0.0956,0.22428 -0.0873,0.0256 -0.16212,0.0507 -0.31987,0.078 -0.4601,0.0796 -1.19893,0.15023 -2.24431,0.21136 -1.70323,0.0996 -4.44447,0.37728 -6.96288,0.67954 -2.51842,0.30227 -4.75597,0.61292 -5.62137,0.83406 -1.42336,0.36372 -3.02296,1.25237 -4.4452,2.33577 -1.42224,1.08339 -2.65889,2.35031 -3.29696,3.5724 -0.75869,1.45314 -1.09835,3.13895 -1.36477,6.52156 -0.0658,0.83493 -0.15327,1.5016 -0.25012,1.96836 -0.0825,0.39746 -0.22482,0.65835 -0.22376,0.68833 v 5.1e-4 l 5.2e-4,5.2e-4 v 5.2e-4 h 5.2e-4 v 5.1e-4 h 5.1e-4 5.2e-4 5.2e-4 5.1e-4 c -0.21228,0.1938 -0.33447,0.2281 -0.34416,0.23565 -0.0124,-0.0157 -0.0185,-0.0165 -0.0429,-0.0687 -0.15765,-0.33758 -0.30313,-1.41572 -0.29869,-3.09749 0.008,-2.70278 0.16797,-3.71016 1.44125,-9.11314 0.18574,-0.78818 0.71287,-1.79776 1.48467,-2.76985 0.72381,-0.91162 1.80084,-2.57531 2.45669,-3.78478 0.38755,-0.71466 0.72285,-1.25129 0.99994,-1.60766 0.27709,-0.35637 0.50487,-0.51518 0.57826,-0.54105 0.40607,-0.14315 1.63485,-0.32889 3.13883,-0.45682 1.50398,-0.12792 3.32636,-0.22137 5.11132,-0.26975 1.78495,-0.0484 3.53426,-0.0523 4.88497,-0.002 z m -46.39097,0.5824 c 3.45867,0.12948 5.53367,0.34065 6.74998,0.78703 1.21631,0.44638 1.62158,1.02422 2.01176,2.24792 0.25098,0.7871 1.05788,2.23509 1.86914,3.46697 0.37653,0.57176 0.69163,1.10379 0.9064,1.50792 -0.0641,-0.0201 -0.1125,-0.0243 -0.17777,-0.0491 -0.33717,-0.12829 -0.90001,-0.25726 -1.64434,-0.41186 -0.74433,-0.1546 -1.64019,-0.31818 -2.51199,-0.45527 -3.49051,-0.54889 -7.87556,-0.64779 -11.84734,-0.39067 -3.97178,0.25711 -7.49139,0.83835 -9.39271,1.79317 -0.40615,0.20396 -0.79484,0.38516 -1.10536,0.52141 0.11045,-0.41478 0.31889,-0.99608 0.62891,-1.66604 0.31494,-0.68064 0.81715,-2.08828 1.16168,-3.22668 0.38212,-1.26262 0.66974,-1.99592 0.97669,-2.42724 0.30695,-0.43133 0.62939,-0.62486 1.29914,-0.87333 0.80476,-0.29856 2.42854,-0.56684 4.40387,-0.71676 1.97533,-0.14991 4.32187,-0.19545 6.67194,-0.10748 z m 50.70337,11.21688 1.56631,0.91571 c 2.00166,1.17147 4.75845,3.63021 6.53138,5.84615 0.89476,1.11835 1.83819,2.56095 2.51768,3.7791 0.33974,0.60908 0.61319,1.1639 0.78083,1.58027 0.0838,0.20819 0.14105,0.3842 0.1664,0.49764 0.003,0.0125 0.005,0.0247 0.006,0.0357 -0.0673,0.042 -0.1864,0.10169 -0.34417,0.16174 -0.33101,0.12601 -0.833,0.26244 -1.46296,0.39275 -1.25991,0.26062 -3.03946,0.50198 -5.1542,0.68161 -4.70964,0.40005 -11.9835,0.51531 -14.60376,0.25011 -2.90188,-0.2937 -6.07364,-1.03837 -8.20674,-1.91616 -0.72021,-0.29637 -1.10414,-0.4954 -1.2268,-0.60358 -0.12267,-0.10817 -0.10542,-0.0833 -0.10542,-0.38086 0,-0.76663 0.21989,-2.81928 0.48266,-4.69893 0.13138,-0.93982 0.27421,-1.84716 0.40205,-2.55127 0.0639,-0.35205 0.1231,-0.6534 0.1757,-0.8785 0.0526,-0.22511 0.12115,-0.40282 0.10386,-0.36949 0.39352,-0.75852 1.3259,-1.36538 3.32797,-1.80454 2.00208,-0.43916 5.00589,-0.6845 9.31261,-0.79271 z m -52.44383,0.46716 c 0.99965,0.001 2.03703,0.0433 3.10575,0.12867 3.57386,0.28536 6.26818,0.89386 8.12716,1.81229 1.85897,0.91843 2.8784,2.1015 3.26543,3.65818 0.23673,0.95219 0.33139,2.22665 0.28319,3.39049 -0.0482,1.16384 -0.26107,2.24107 -0.50747,2.71301 -0.39695,0.76027 -1.36189,1.49098 -2.92385,2.06861 -1.56195,0.57763 -3.6935,1.00114 -6.32468,1.23248 -2.92128,0.25689 -7.72205,0.28854 -9.65987,0.076 -1.69935,-0.18642 -3.54184,-0.72307 -5.05086,-1.40612 -1.50903,-0.68304 -2.67778,-1.55792 -3.02927,-2.17403 -0.0952,-0.16687 -0.23938,-0.62935 -0.34003,-1.19734 -0.10065,-0.56799 -0.17505,-1.25526 -0.21446,-1.94923 -0.0788,-1.38794 0.0176,-2.86353 0.19896,-3.37292 0.59777,-1.67937 2.44527,-3.08188 5.28339,-3.96307 1.41906,-0.44059 3.07412,-0.74788 4.90823,-0.90227 0.91706,-0.0772 1.87873,-0.11611 2.87838,-0.11472 z" /></g><path
       style="fill:#35962a;fill-opacity:1;stroke-width:1;stroke-linecap:round;stroke-linejoin:round;paint-order:fill markers stroke"
       d="m 305.2718,18.994573 c 0.65105,0.656135 1.46842,1.479438 1.95136,1.966599 0.22622,0.228198 0.61405,0.252941 0.86689,0.05462 l 2.18609,-1.714655 c 0.56112,-0.440117 0.43933,-0.837781 -0.27192,-0.889528 -1.22469,-0.0891 -3.05853,-0.223272 -4.31953,-0.315059 -0.77454,-0.05638 -0.9599,0.346746 -0.41289,0.89802 z"
       id="path15"
       transform="matrix(0.91349306,0,0,0.91349306,26.626238,-98.302683)" /><path
       style="fill:#35962a;fill-opacity:1;stroke-width:1;stroke-linecap:round;stroke-linejoin:round;paint-order:fill markers stroke"
       d="m 333.65792,18.259096 c 0.88493,0.708954 1.43436,1.147348 1.98691,1.54973 0.17503,0.127456 0.44993,0.110514 0.59823,-0.04736 0.54849,-0.583881 0.99405,-1.313196 1.47231,-2.033439 0.49974,-0.752587 0.25647,-1.175458 -0.62991,-0.995407 -1.08526,0.22045 -2.12146,0.437392 -3.18666,0.618494 -0.63487,0.107938 -0.7441,0.504834 -0.24088,0.907985 z"
       id="path16"
       transform="matrix(0.91236157,0,0,0.91236157,29.416404,-98.396878)" /></g></svg>
