<?xml version="1.0" encoding="UTF-8" standalone="no"?>
<!-- Created with Inkscape (http://www.inkscape.org/) -->

<svg
   width="36.502651mm"
   height="18.39274mm"
   viewBox="0 0 36.502651 18.39274"
   version="1.1"
   id="svg1"
   xml:space="preserve"
   xmlns="http://www.w3.org/2000/svg"
   xmlns:svg="http://www.w3.org/2000/svg"><defs
     id="defs1" /><g
     id="layer1"
     transform="translate(-390.22982,-246.83524)"><g
       id="text6"
       style="font-size:11.8323px;line-height:0.8;font-family:contb;-inkscape-font-specification:contb;text-align:center;text-anchor:middle;white-space:pre;inline-size:59.5145;stroke:#000000;stroke-width:3.7267;stroke-linecap:round;stroke-linejoin:round;paint-order:fill markers stroke"
       transform="translate(89.362639,2.4908439)"
       aria-label="Marvin&#10;Award"><path
         style="font-weight:600;font-family:Fredoka;-inkscape-font-specification:'Fredoka Semi-Bold';stroke:none"
         d="m 301.75456,252.94643 q -0.42596,0 -0.61528,-0.13016 -0.17748,-0.13015 -0.22481,-0.3313 -0.0473,-0.21299 -0.0473,-0.44963 v -6.47227 q 0,-0.22481 0.0473,-0.41413 0.0473,-0.20115 0.23664,-0.3313 0.18932,-0.13016 0.62712,-0.13016 0.2958,0 0.44962,0.0355 0.15382,0.0355 0.22482,0.10649 0.071,0.0592 0.15382,0.14199 l 2.66226,3.59701 h -0.17748 l 2.6741,-3.59701 q 0.0947,-0.11833 0.18932,-0.17749 0.0947,-0.0592 0.23664,-0.0828 0.15382,-0.0237 0.42597,-0.0237 0.42596,0 0.61528,0.13016 0.18931,0.13015 0.23664,0.34313 0.0473,0.20115 0.0473,0.42597 v 6.47226 q 0,0.22482 -0.0473,0.42597 -0.0473,0.20115 -0.23664,0.3313 -0.18932,0.13016 -0.62712,0.13016 -0.42596,0 -0.61528,-0.13016 -0.18931,-0.13015 -0.23664,-0.34314 -0.0473,-0.21298 -0.0473,-0.43779 v -4.22413 l -1.76301,2.49661 q -0.0473,0.0592 -0.13016,0.16566 -0.0828,0.0947 -0.23665,0.16565 -0.14198,0.071 -0.39046,0.071 -0.26031,0 -0.41413,-0.071 -0.14199,-0.071 -0.22482,-0.16565 -0.0828,-0.0947 -0.14198,-0.16566 l -1.75118,-2.48478 v 4.23596 q 0,0.22482 -0.0473,0.42597 -0.0473,0.20115 -0.23665,0.3313 -0.17748,0.13016 -0.61528,0.13016 z m 13.50063,-0.0118 q -0.43779,0 -0.65077,-0.15382 -0.20115,-0.15382 -0.20115,-0.37863 l 0.11832,-0.20115 q -0.071,0.11832 -0.27214,0.29581 -0.20115,0.16565 -0.52062,0.30764 -0.31948,0.13015 -0.79277,0.13015 -0.54428,0 -1.04124,-0.23664 -0.48512,-0.23665 -0.86376,-0.65078 -0.37863,-0.42596 -0.60344,-0.95842 -0.21299,-0.53245 -0.21299,-1.12406 0,-0.57979 0.21299,-1.10041 0.22481,-0.53245 0.60344,-0.93475 0.39047,-0.41413 0.87559,-0.65078 0.48513,-0.23664 1.02941,-0.23664 0.4378,0 0.74544,0.13015 0.30764,0.11833 0.50879,0.28398 0.21298,0.16565 0.31947,0.31947 l -0.0947,-0.16565 q -0.0118,-0.28398 0.18932,-0.42596 0.21298,-0.15382 0.66261,-0.15382 0.42596,0 0.60344,0.13015 0.18932,0.13016 0.22482,0.34314 0.0473,0.21298 0.0473,0.44963 v 4.08214 q 0,0.22481 -0.0473,0.43779 -0.0355,0.21299 -0.22482,0.34314 -0.17748,0.11832 -0.61528,0.11832 z m -2.05882,-1.76301 q 0.30764,0 0.55612,-0.15382 0.26031,-0.16565 0.4023,-0.43779 0.15382,-0.27215 0.15382,-0.60345 0,-0.34314 -0.15382,-0.60345 -0.15382,-0.27214 -0.41413,-0.42596 -0.26031,-0.16565 -0.56795,-0.16565 -0.34314,0 -0.61528,0.16565 -0.26031,0.16565 -0.42596,0.43779 -0.15382,0.27215 -0.15382,0.61528 0,0.31948 0.15382,0.59162 0.16565,0.26031 0.43779,0.42596 0.28398,0.15382 0.62711,0.15382 z m 4.78025,1.77485 q -0.4378,0 -0.62711,-0.11833 -0.17749,-0.13015 -0.22482,-0.34313 -0.0355,-0.21299 -0.0355,-0.4378 v -4.12947 q 0,-0.23665 0.0473,-0.4378 0.0473,-0.20115 0.22481,-0.31947 0.18932,-0.13015 0.62711,-0.13015 0.41413,0 0.59162,0.11832 0.18931,0.10649 0.23664,0.26031 0.0473,0.14199 0.0473,0.24848 l -0.14199,0.071 q 0.0237,-0.0473 0.11833,-0.16565 0.10649,-0.13016 0.28397,-0.26031 0.17749,-0.14199 0.42597,-0.23665 0.26031,-0.0947 0.59161,-0.0947 0.13016,0 0.28398,0.0237 0.16565,0.0118 0.3313,0.071 0.17748,0.0473 0.31947,0.14199 0.14199,0.0828 0.22482,0.21298 0.0947,0.13016 0.0947,0.31947 0,0.48513 -0.22481,0.82826 -0.22481,0.33131 -0.56795,0.33131 -0.20115,0 -0.28398,-0.0355 -0.0828,-0.0355 -0.14198,-0.071 -0.0473,-0.0355 -0.11833,-0.0592 -0.071,-0.0355 -0.26031,-0.0355 -0.17748,0 -0.34313,0.0473 -0.15382,0.0473 -0.29581,0.15382 -0.13016,0.0947 -0.21298,0.24848 -0.071,0.14199 -0.071,0.31947 v 2.60311 q 0,0.22481 -0.0473,0.43779 -0.0355,0.20115 -0.22482,0.31947 -0.18932,0.11833 -0.62711,0.11833 z m 6.95739,0.0473 q -0.28397,0 -0.48512,-0.1065 -0.20115,-0.10649 -0.31947,-0.3313 l -2.12982,-4.2478 q -0.21298,-0.42596 -0.13015,-0.6981 0.0947,-0.28398 0.54429,-0.50879 0.44962,-0.21298 0.70993,-0.14199 0.27215,0.0592 0.48513,0.54429 l 1.32521,3.08823 1.32522,-3.0409 q 0.22482,-0.50879 0.48513,-0.59162 0.26031,-0.0828 0.7336,0.15382 0.48512,0.22482 0.53245,0.53246 0.0592,0.2958 -0.14198,0.68627 l -2.11799,4.22413 q -0.10649,0.22481 -0.30764,0.3313 -0.20115,0.1065 -0.50879,0.1065 z m 4.78025,-0.0473 q -0.4378,0 -0.62712,-0.11833 -0.17748,-0.13015 -0.22481,-0.3313 -0.0355,-0.21298 -0.0355,-0.4378 v -4.12947 q 0,-0.23665 0.0355,-0.43779 0.0473,-0.20115 0.23665,-0.31948 0.18931,-0.13015 0.62711,-0.13015 0.42596,0 0.60345,0.13015 0.18931,0.13016 0.22481,0.33131 0.0473,0.20115 0.0473,0.44963 v 4.11764 q 0,0.22481 -0.0473,0.43779 -0.0355,0.20115 -0.22481,0.31947 -0.17749,0.11833 -0.61528,0.11833 z m 0,-6.76808 q -0.44963,0 -0.63895,-0.13016 -0.18932,-0.13015 -0.23664,-0.34313 -0.0355,-0.21298 -0.0355,-0.44963 0,-0.24848 0.0473,-0.44963 0.0473,-0.21298 0.23664,-0.3313 0.18932,-0.13016 0.63895,-0.13016 0.43779,0 0.62711,0.13016 0.18932,0.13015 0.22481,0.34314 0.0473,0.21298 0.0473,0.44962 0,0.23665 -0.0473,0.44963 -0.0355,0.21298 -0.22481,0.34314 -0.18932,0.11832 -0.63894,0.11832 z m 2.80426,6.75624 q -0.4378,0 -0.62711,-0.11832 -0.17749,-0.13015 -0.22482,-0.3313 -0.0355,-0.21299 -0.0355,-0.4378 v -4.16497 q 0,-0.22481 0.0473,-0.41413 0.0473,-0.20115 0.22482,-0.31947 0.18932,-0.11832 0.62711,-0.11832 0.37863,0 0.55612,0.10649 0.17748,0.0947 0.22481,0.23664 0.0592,0.14199 0.0592,0.27215 0,0.11832 0.0237,0.16565 l -0.071,0.22481 q 0.0237,-0.17748 0.17749,-0.35497 0.16565,-0.18931 0.4023,-0.3313 0.24848,-0.15382 0.52062,-0.23665 0.28397,-0.0828 0.55612,-0.0828 0.56795,0 1.00574,0.21298 0.44963,0.20115 0.75727,0.59161 0.30764,0.39047 0.46146,0.92292 0.16565,0.52062 0.16565,1.14773 v 2.15348 q 0,0.22482 -0.0473,0.4378 -0.0355,0.20115 -0.22481,0.31947 -0.17749,0.11832 -0.61528,0.11832 -0.44963,0 -0.63895,-0.11832 -0.17748,-0.13015 -0.22481,-0.3313 -0.0473,-0.21299 -0.0473,-0.4378 v -2.14165 q 0,-0.35496 -0.11832,-0.60344 -0.11832,-0.24848 -0.35497,-0.37864 -0.23665,-0.14198 -0.57978,-0.14198 -0.34314,0 -0.59162,0.14198 -0.24848,0.14199 -0.39046,0.39047 -0.13016,0.24848 -0.13016,0.59161 v 2.15348 q 0,0.22482 -0.0473,0.4378 -0.0355,0.20115 -0.22481,0.31947 -0.17749,0.11832 -0.61528,0.11832 z"
         id="path10" /><path
         style="font-weight:600;font-family:Fredoka;-inkscape-font-specification:'Fredoka Semi-Bold';stroke:none"
         d="m 310.36256,261.39568 q 0.14199,0.29581 0.15382,0.50879 0.0118,0.20115 -0.13016,0.3668 -0.13015,0.15382 -0.43779,0.30764 -0.47329,0.22482 -0.73361,0.13016 -0.26031,-0.0828 -0.48512,-0.55612 l -2.31913,-4.85124 -2.3073,4.85124 q -0.23664,0.46146 -0.49696,0.54429 -0.24847,0.0947 -0.72177,-0.13016 -0.30764,-0.14199 -0.44962,-0.29581 -0.13016,-0.16565 -0.11833,-0.37863 0.0118,-0.22481 0.16566,-0.52062 l 3.11189,-6.47227 q 0.11832,-0.23665 0.34314,-0.37863 0.23664,-0.14199 0.48512,-0.14199 0.17749,0 0.33131,0.071 0.15382,0.0592 0.27214,0.17749 0.13015,0.11832 0.21298,0.28397 z m -5.93982,-0.67444 0.73361,-1.52637 h 2.52028 l 0.7336,1.52637 z m 7.77382,1.9405 q -0.31948,0 -0.49696,-0.11832 -0.16565,-0.11833 -0.24848,-0.28398 -0.071,-0.16565 -0.11832,-0.28397 l -1.66836,-4.12948 q -0.0828,-0.28397 -0.0828,-0.47329 0.0118,-0.20115 0.14199,-0.3313 0.14198,-0.14199 0.43779,-0.24848 0.44963,-0.18932 0.7336,-0.10649 0.28398,0.0828 0.42597,0.48512 l 0.87559,2.37829 0.78093,-2.18897 q 0.0473,-0.11832 0.13015,-0.26031 0.0828,-0.15382 0.24848,-0.27215 0.17749,-0.11832 0.47329,-0.11832 0.31948,0 0.49696,0.11832 0.17748,0.11833 0.26031,0.27215 0.0947,0.15382 0.13016,0.26031 l 0.78093,2.18897 0.82826,-2.2363 q 0.16565,-0.4378 0.43779,-0.59162 0.27215,-0.15382 0.72177,0.0355 0.41413,0.17749 0.56795,0.4378 0.15382,0.26031 -0.0355,0.66261 l -1.66836,4.11764 q -0.0473,0.13015 -0.13015,0.2958 -0.0828,0.16566 -0.24848,0.27215 -0.16565,0.11832 -0.46146,0.11832 -0.30764,0 -0.47329,-0.10649 -0.16565,-0.0947 -0.26031,-0.26031 -0.0828,-0.16565 -0.14199,-0.33131 l -0.79276,-2.17714 -0.78094,2.17714 q -0.0828,0.21298 -0.15382,0.37864 -0.071,0.15382 -0.23664,0.23664 -0.15382,0.0828 -0.47329,0.0828 z m 11.07501,-0.0237 q -0.43779,0 -0.65077,-0.15382 -0.20115,-0.15382 -0.20115,-0.37863 l 0.11832,-0.20115 q -0.071,0.11832 -0.27214,0.29581 -0.20115,0.16565 -0.52062,0.30764 -0.31947,0.13015 -0.79277,0.13015 -0.54428,0 -1.04124,-0.23664 -0.48512,-0.23665 -0.86376,-0.65078 -0.37863,-0.42596 -0.60344,-0.95841 -0.21299,-0.53246 -0.21299,-1.12407 0,-0.57979 0.21299,-1.10041 0.22481,-0.53245 0.60344,-0.93475 0.39047,-0.41413 0.87559,-0.65078 0.48513,-0.23664 1.02941,-0.23664 0.4378,0 0.74544,0.13015 0.30764,0.11833 0.50879,0.28398 0.21298,0.16565 0.31947,0.31947 l -0.0947,-0.16565 q -0.0118,-0.28398 0.18932,-0.42596 0.21298,-0.15382 0.66261,-0.15382 0.42596,0 0.60344,0.13015 0.18932,0.13016 0.22482,0.34314 0.0473,0.21298 0.0473,0.44963 v 4.08214 q 0,0.22481 -0.0473,0.43779 -0.0355,0.21299 -0.22482,0.34314 -0.17748,0.11832 -0.61528,0.11832 z m -2.05882,-1.76301 q 0.30764,0 0.55612,-0.15382 0.26031,-0.16565 0.4023,-0.43779 0.15382,-0.27215 0.15382,-0.60345 0,-0.34314 -0.15382,-0.60345 -0.15382,-0.27214 -0.41413,-0.42596 -0.26031,-0.16565 -0.56795,-0.16565 -0.34314,0 -0.61528,0.16565 -0.26031,0.16565 -0.42596,0.43779 -0.15382,0.27215 -0.15382,0.61528 0,0.31948 0.15382,0.59162 0.16565,0.26031 0.43779,0.42596 0.28398,0.15382 0.62711,0.15382 z m 4.78025,1.77485 q -0.4378,0 -0.62711,-0.11833 -0.17749,-0.13015 -0.22482,-0.34313 -0.0355,-0.21298 -0.0355,-0.4378 v -4.12947 q 0,-0.23665 0.0473,-0.4378 0.0473,-0.20115 0.22481,-0.31947 0.18932,-0.13015 0.62711,-0.13015 0.41413,0 0.59162,0.11832 0.18931,0.10649 0.23664,0.26031 0.0473,0.14199 0.0473,0.24848 l -0.14199,0.071 q 0.0237,-0.0473 0.11833,-0.16565 0.10649,-0.13016 0.28397,-0.26031 0.17749,-0.14199 0.42597,-0.23665 0.26031,-0.0947 0.59161,-0.0947 0.13016,0 0.28398,0.0237 0.16565,0.0118 0.3313,0.071 0.17749,0.0473 0.31947,0.14199 0.14199,0.0828 0.22482,0.21298 0.0947,0.13016 0.0947,0.31947 0,0.48513 -0.22481,0.82827 -0.22481,0.3313 -0.56795,0.3313 -0.20115,0 -0.28397,-0.0355 -0.0828,-0.0355 -0.14199,-0.071 -0.0473,-0.0355 -0.11833,-0.0592 -0.071,-0.0355 -0.26031,-0.0355 -0.17748,0 -0.34313,0.0473 -0.15382,0.0473 -0.29581,0.15382 -0.13016,0.0947 -0.21298,0.24848 -0.071,0.14199 -0.071,0.31947 v 2.60311 q 0,0.22481 -0.0473,0.43779 -0.0355,0.20115 -0.22482,0.31947 -0.18931,0.11833 -0.62711,0.11833 z m 6.29478,-0.0118 q -0.53245,0 -1.02941,-0.22481 -0.48513,-0.23665 -0.86376,-0.65078 -0.37863,-0.41413 -0.60345,-0.94658 -0.21298,-0.54429 -0.21298,-1.14773 0,-0.57979 0.21298,-1.10041 0.22482,-0.53245 0.60345,-0.93475 0.39047,-0.41413 0.87559,-0.65078 0.48513,-0.23664 1.01758,-0.23664 0.56795,0 0.99391,0.23664 0.4378,0.22482 0.7336,0.62712 0.29581,0.40229 0.4378,0.93475 0.15382,0.53245 0.16565,1.11223 0.0118,0.60345 -0.14199,1.13591 -0.14198,0.53245 -0.43779,0.94658 -0.29581,0.41413 -0.7336,0.66261 -0.42597,0.23664 -1.01758,0.23664 z m 0.23664,-1.75118 q 0.31948,0 0.56796,-0.15382 0.26031,-0.16565 0.41413,-0.43779 0.16565,-0.27214 0.16565,-0.60345 0,-0.34314 -0.15382,-0.60345 -0.15382,-0.27214 -0.41413,-0.42596 -0.26031,-0.15382 -0.59162,-0.15382 -0.31947,0 -0.59161,0.15382 -0.26031,0.15382 -0.41413,0.42596 -0.14199,0.26031 -0.14199,0.60345 0,0.33131 0.15382,0.60345 0.15382,0.27214 0.42596,0.43779 0.27215,0.15382 0.57978,0.15382 z m 2.07066,1.76302 q -0.4023,0 -0.60345,-0.13016 -0.20115,-0.13015 -0.26031,-0.4023 v -7.17037 q 0,-0.22481 0.0237,-0.42596 0.0355,-0.21298 0.21299,-0.34314 0.17748,-0.13016 0.61528,-0.13016 0.43779,0 0.61527,0.13016 0.18932,0.11832 0.22482,0.31947 0.0473,0.20115 0.0473,0.4378 v 6.8154 q 0,0.22482 -0.0473,0.4378 -0.0355,0.20115 -0.22482,0.3313 -0.17748,0.13016 -0.60344,0.13016 z"
         id="path12" /></g></g></svg>
